<svg id="svg" xmlns="http://www.w3.org/2000/svg" xmlns:xlink="http://www.w3.org/1999/xlink" width="400" height="400" viewBox="0, 0, 400,400"><g id="svgg"><path id="path0" d="M273.726 25.165 C 264.059 26.240,251.049 31.046,239.361 37.859 C 233.407 41.329,232.770 41.725,232.634 42.045 C 232.561 42.217,232.334 42.358,232.130 42.358 C 231.927 42.358,230.863 42.987,229.766 43.756 C 228.669 44.525,226.828 45.813,225.674 46.618 C 221.285 49.680,211.247 57.666,209.187 59.734 C 208.746 60.177,207.757 61.052,206.989 61.679 C 206.222 62.305,204.403 63.969,202.948 65.375 C 199.544 68.664,200.462 68.874,194.684 63.487 C 193.298 62.196,192.078 61.139,191.973 61.139 C 191.867 61.139,191.289 60.644,190.688 60.040 C 190.086 59.436,188.253 57.862,186.615 56.543 C 184.977 55.225,183.272 53.846,182.827 53.479 C 181.935 52.745,174.012 46.906,172.615 45.954 C 172.131 45.624,171.324 45.040,170.820 44.655 C 170.316 44.271,169.796 43.956,169.663 43.956 C 169.531 43.956,168.527 43.327,167.433 42.557 C 166.338 41.788,165.360 41.159,165.259 41.159 C 165.158 41.159,164.245 40.599,163.231 39.914 C 160.470 38.051,149.825 32.774,145.055 30.903 C 138.029 28.148,134.262 27.063,127.864 25.950 C 105.311 22.028,89.256 32.600,82.503 55.819 C 78.450 69.757,77.704 89.694,80.535 108.492 C 81.920 117.693,83.298 125.166,84.342 129.136 C 84.553 129.940,84.874 131.392,85.055 132.361 L 85.385 134.123 82.353 135.055 C 73.224 137.864,61.785 141.929,59.846 143.054 C 59.464 143.275,58.980 143.457,58.771 143.457 C 58.561 143.457,56.626 144.279,54.470 145.284 C 52.314 146.289,49.740 147.488,48.751 147.948 C 25.806 158.626,7.763 175.898,3.770 191.009 C 2.073 197.429,2.521 207.122,4.724 211.685 C 4.911 212.071,5.758 213.826,6.608 215.584 C 7.457 217.343,8.745 219.634,9.471 220.675 C 10.196 221.717,10.789 222.751,10.789 222.973 C 10.789 223.195,10.945 223.377,11.136 223.377 C 11.326 223.377,11.980 224.128,12.587 225.047 C 13.878 226.997,21.279 234.492,24.175 236.782 C 25.274 237.651,26.382 238.541,26.638 238.761 C 28.292 240.180,36.198 245.754,36.558 245.754 C 36.649 245.754,37.496 246.269,38.442 246.898 C 43.883 250.520,57.041 256.895,66.733 260.606 C 71.944 262.601,82.477 266.134,83.215 266.134 C 84.926 266.134,85.296 267.094,84.620 269.779 C 77.327 298.742,76.856 328.905,83.415 347.053 C 83.971 348.591,84.664 350.509,84.956 351.314 C 88.530 361.178,97.580 370.115,107.170 373.254 C 113.411 375.296,124.744 375.687,130.954 374.073 C 131.787 373.857,133.726 373.374,135.265 373.000 C 143.949 370.889,157.410 364.987,164.955 359.981 C 165.900 359.354,166.756 358.841,166.857 358.841 C 167.019 358.841,173.370 354.733,174.424 353.947 C 183.319 347.312,188.414 343.351,190.231 341.658 C 190.585 341.329,191.579 340.453,192.440 339.711 C 193.301 338.970,195.389 337.115,197.080 335.590 C 198.770 334.064,200.233 332.782,200.331 332.741 C 200.429 332.701,202.013 334.036,203.851 335.708 C 205.689 337.381,207.993 339.449,208.972 340.304 C 209.950 341.159,211.044 342.128,211.403 342.458 C 212.617 343.572,215.859 346.231,216.723 346.820 C 217.196 347.143,217.672 347.522,217.782 347.663 C 217.952 347.881,222.432 351.315,224.669 352.943 C 226.689 354.411,229.535 356.327,232.567 358.259 C 234.436 359.449,236.153 360.561,236.384 360.731 C 239.163 362.771,249.783 368.038,255.744 370.333 C 279.407 379.442,298.595 375.826,309.314 360.240 C 320.496 343.981,324.197 310.854,318.131 281.315 C 317.884 280.108,317.233 276.873,316.685 274.126 C 316.137 271.379,315.495 268.440,315.258 267.595 C 315.021 266.750,314.885 266.027,314.956 265.988 C 315.027 265.950,318.052 264.942,321.678 263.750 C 325.305 262.558,328.811 261.366,329.471 261.101 C 330.130 260.837,331.479 260.313,332.468 259.938 C 338.553 257.629,343.029 255.668,349.251 252.586 C 356.557 248.965,364.362 244.519,366.633 242.681 C 366.853 242.503,367.842 241.819,368.831 241.160 C 369.820 240.501,370.719 239.862,370.829 239.740 C 370.939 239.618,371.748 238.997,372.627 238.360 C 377.617 234.746,386.445 226.049,388.185 223.033 C 388.390 222.678,388.713 222.205,388.903 221.983 C 395.392 214.384,398.613 198.924,395.440 190.609 C 395.146 189.840,394.491 188.132,393.983 186.813 C 390.786 178.508,382.536 168.898,371.970 161.171 C 367.422 157.845,363.778 155.445,363.276 155.445 C 363.071 155.445,362.844 155.303,362.771 155.130 C 362.509 154.513,347.195 146.254,346.312 146.254 C 346.190 146.254,344.958 145.725,343.574 145.078 C 342.191 144.431,339.890 143.434,338.462 142.862 C 337.033 142.290,335.504 141.655,335.065 141.451 C 334.012 140.963,331.995 140.263,324.076 137.637 C 320.450 136.434,316.763 135.209,315.884 134.914 C 314.060 134.301,314.061 134.309,315.042 129.870 C 321.158 102.180,321.945 71.617,316.904 57.542 C 316.707 56.993,316.060 54.967,315.466 53.039 C 309.318 33.085,294.070 22.902,273.726 25.165 M284.751 42.181 C 293.923 44.308,298.875 52.049,302.376 69.730 C 302.973 72.743,303.089 75.497,303.092 86.713 C 303.097 100.156,302.967 101.984,301.254 112.488 C 301.039 113.806,300.690 115.964,300.478 117.283 C 300.053 119.929,299.188 123.945,298.219 127.765 C 297.532 130.474,297.527 130.477,294.505 129.473 C 293.956 129.291,291.439 128.756,288.911 128.284 C 286.384 127.813,283.057 127.174,281.518 126.864 C 276.500 125.854,268.469 124.629,260.739 123.693 C 258.102 123.374,255.340 123.003,254.601 122.868 C 253.862 122.734,251.350 122.472,249.018 122.285 C 246.686 122.098,244.727 121.796,244.666 121.612 C 244.309 120.546,228.048 98.920,225.242 95.779 C 224.765 95.246,223.566 93.854,222.577 92.686 C 219.898 89.520,214.893 83.746,214.622 83.508 C 214.492 83.394,213.765 82.629,213.007 81.809 L 211.629 80.317 213.841 78.221 C 216.833 75.384,219.182 73.277,221.749 71.129 C 222.931 70.140,224.191 69.055,224.550 68.717 C 224.909 68.380,225.916 67.571,226.787 66.921 C 227.659 66.271,228.462 65.644,228.571 65.528 C 229.233 64.830,234.084 61.249,234.665 61.029 C 235.050 60.883,235.365 60.579,235.365 60.352 C 235.365 60.126,235.606 59.940,235.902 59.940 C 236.198 59.940,236.765 59.580,237.163 59.141 C 237.561 58.701,238.113 58.342,238.390 58.342 C 238.668 58.342,238.954 58.199,239.028 58.024 C 239.101 57.850,240.556 56.816,242.260 55.727 C 258.936 45.071,275.056 39.932,284.751 42.181 M123.077 42.353 C 130.052 43.042,136.850 45.247,146.054 49.807 C 148.911 51.222,151.607 52.598,152.044 52.863 C 160.029 57.714,165.894 61.707,171.810 66.320 C 174.813 68.660,177.634 70.925,178.079 71.352 C 178.525 71.779,180.043 73.117,181.453 74.326 C 182.863 75.534,184.910 77.362,186.003 78.386 L 187.991 80.249 185.404 83.179 C 183.981 84.790,182.368 86.631,181.818 87.270 C 181.269 87.908,180.535 88.719,180.187 89.071 C 179.672 89.591,176.313 93.540,174.447 95.818 C 174.215 96.100,173.840 96.550,173.612 96.817 C 173.385 97.084,172.126 98.642,170.815 100.278 C 169.504 101.915,168.052 103.667,167.588 104.173 C 167.123 104.679,166.225 105.857,165.591 106.792 C 164.957 107.727,164.213 108.635,163.937 108.811 C 163.662 108.987,163.437 109.286,163.437 109.476 C 163.437 109.667,163.087 110.242,162.661 110.755 C 161.180 112.536,155.445 120.292,155.445 120.513 C 155.445 121.475,153.868 121.990,149.973 122.302 C 147.638 122.489,145.261 122.739,144.692 122.857 C 144.122 122.976,141.319 123.348,138.462 123.684 C 130.733 124.594,122.340 125.904,114.486 127.425 C 112.288 127.850,109.411 128.399,108.092 128.643 C 106.773 128.887,104.920 129.289,103.974 129.537 C 101.896 130.080,101.636 129.872,101.114 127.259 C 100.896 126.168,100.344 123.566,99.886 121.479 C 99.428 119.391,98.790 115.974,98.468 113.886 C 98.146 111.798,97.801 109.861,97.701 109.581 C 97.602 109.300,97.134 105.794,96.663 101.788 C 94.525 83.627,96.046 65.370,100.548 55.145 C 101.724 52.475,102.897 50.350,103.196 50.350 C 103.361 50.350,103.502 50.125,103.508 49.850 C 103.566 47.372,110.583 42.932,115.306 42.385 C 119.170 41.937,118.870 41.938,123.077 42.353 M202.449 95.248 C 205.118 98.138,207.671 101.095,213.089 107.570 C 215.607 110.580,222.577 119.598,222.577 119.846 C 222.577 119.975,212.328 120.080,199.800 120.080 C 187.273 120.080,177.023 119.980,177.023 119.859 C 177.023 119.579,179.455 116.218,180.044 115.684 C 180.286 115.465,181.806 113.576,183.422 111.489 C 185.037 109.401,186.463 107.602,186.591 107.493 C 186.719 107.383,187.627 106.304,188.609 105.095 C 190.275 103.043,191.570 101.524,193.007 99.931 C 193.337 99.566,194.929 97.791,196.546 95.987 C 200.061 92.065,199.566 92.127,202.449 95.248 M230.246 137.581 C 233.254 137.855,235.782 138.166,235.863 138.271 C 236.346 138.898,243.024 149.157,243.920 150.649 C 244.514 151.638,245.707 153.526,246.572 154.845 C 247.436 156.164,248.333 157.602,248.564 158.042 C 249.051 158.966,249.566 159.815,250.990 162.038 C 251.553 162.917,252.557 164.625,253.221 165.834 C 253.885 167.043,255.018 169.021,255.739 170.230 C 256.461 171.439,257.588 173.417,258.244 174.625 C 258.901 175.834,260.071 177.992,260.846 179.421 C 261.620 180.849,262.381 182.198,262.537 182.418 C 262.812 182.805,267.926 192.540,270.199 197.003 C 270.815 198.212,271.321 199.513,271.324 199.894 C 271.332 201.024,266.516 210.409,257.428 226.972 C 255.744 230.041,248.021 243.146,247.772 243.357 C 247.642 243.467,247.313 244.006,247.041 244.555 C 246.768 245.105,246.232 246.030,245.850 246.610 C 245.468 247.191,244.565 248.630,243.843 249.807 C 241.934 252.922,241.791 253.146,239.137 257.129 C 237.806 259.128,236.608 261.046,236.475 261.393 C 235.891 262.914,221.377 263.497,192.008 263.179 C 163.972 262.875,162.387 262.710,162.251 260.083 C 162.244 259.941,160.934 257.871,159.341 255.482 C 156.386 251.052,154.099 247.474,152.016 244.021 C 151.374 242.957,150.579 241.671,150.250 241.162 C 146.992 236.133,139.108 222.209,135.202 214.585 C 134.357 212.937,133.576 211.499,133.467 211.389 C 133.357 211.279,132.043 208.716,130.548 205.694 L 127.828 200.199 131.364 193.107 C 135.379 185.050,138.317 179.556,143.170 171.029 C 144.484 168.721,146.008 166.024,146.557 165.035 C 147.107 164.046,147.775 162.967,148.043 162.637 C 148.311 162.308,148.643 161.768,148.782 161.439 C 148.921 161.109,149.442 160.185,149.942 159.386 C 150.441 158.586,151.479 156.904,152.248 155.646 C 153.017 154.389,153.916 152.946,154.246 152.440 C 154.575 151.933,155.368 150.649,156.006 149.586 C 156.644 148.522,157.678 146.997,158.304 146.196 C 158.929 145.395,159.441 144.629,159.441 144.494 C 159.441 144.269,161.239 141.605,163.141 139.014 C 163.938 137.928,166.868 137.591,181.618 136.892 C 188.020 136.589,225.138 137.114,230.246 137.581 M141.858 140.418 C 141.858 140.615,137.254 148.065,136.224 149.534 C 135.806 150.130,135.465 150.745,135.465 150.901 C 135.465 151.058,135.218 151.470,134.917 151.817 C 134.616 152.164,133.917 153.271,133.365 154.277 C 131.694 157.320,131.288 158.016,130.821 158.641 C 130.575 158.971,129.876 160.140,129.269 161.239 C 127.448 164.534,126.016 167.151,125.224 168.631 C 124.812 169.400,124.386 170.119,124.276 170.229 C 124.166 170.340,123.536 171.508,122.877 172.827 C 122.218 174.146,121.582 175.315,121.465 175.425 C 121.347 175.534,120.810 176.568,120.272 177.722 C 119.235 179.941,118.811 180.260,118.410 179.121 C 118.160 178.411,116.937 175.485,116.280 174.026 C 115.570 172.449,114.621 169.992,113.889 167.832 C 113.480 166.623,112.924 165.095,112.655 164.436 C 111.876 162.530,109.560 155.935,108.444 152.448 C 107.882 150.689,107.176 148.594,106.876 147.791 L 106.331 146.331 109.010 145.711 C 110.483 145.370,112.318 144.981,113.087 144.847 C 113.856 144.713,115.654 144.361,117.083 144.064 C 125.593 142.296,141.858 139.903,141.858 140.418 M262.338 140.843 C 273.058 142.341,279.392 143.475,291.828 146.123 C 293.155 146.406,293.115 146.824,291.238 152.248 C 290.591 154.116,289.965 156.004,289.847 156.444 C 289.583 157.421,288.188 161.182,287.453 162.898 C 287.156 163.590,286.913 164.334,286.913 164.550 C 286.913 164.767,286.644 165.459,286.316 166.088 C 285.988 166.718,285.718 167.513,285.717 167.856 C 285.715 168.198,285.450 168.828,285.128 169.254 C 284.805 169.681,284.535 170.265,284.528 170.551 C 284.521 170.838,284.143 171.917,283.687 172.949 C 283.232 173.981,282.623 175.365,282.333 176.024 C 282.044 176.683,281.690 177.611,281.547 178.086 C 281.019 179.840,280.297 179.922,279.482 178.319 C 279.064 177.496,278.346 176.194,277.887 175.425 C 277.428 174.655,276.221 172.470,275.205 170.568 C 274.188 168.667,272.965 166.419,272.486 165.573 C 272.007 164.728,271.168 163.227,270.621 162.238 C 270.074 161.249,269.380 160.156,269.079 159.809 C 268.778 159.462,268.531 159.046,268.531 158.884 C 268.531 158.520,259.022 142.695,258.280 141.827 C 257.697 141.142,257.560 140.252,258.042 140.272 C 258.207 140.279,260.140 140.536,262.338 140.843 M91.801 155.744 C 94.136 162.789,96.093 168.427,97.106 171.029 C 97.577 172.238,98.109 173.676,98.289 174.226 C 98.469 174.775,99.370 177.023,100.290 179.221 C 101.210 181.419,102.107 183.679,102.282 184.243 C 102.457 184.808,102.796 185.617,103.036 186.041 C 103.276 186.466,104.212 188.594,105.117 190.770 C 106.022 192.946,106.920 195.014,107.113 195.365 C 109.302 199.346,109.366 200.034,107.858 203.313 C 107.180 204.788,106.270 206.803,105.836 207.792 C 105.401 208.781,104.796 210.130,104.491 210.789 C 104.186 211.449,103.470 213.157,102.899 214.585 C 102.329 216.014,101.697 217.542,101.495 217.982 C 101.293 218.422,100.492 220.445,99.715 222.478 C 98.938 224.510,97.656 227.833,96.866 229.860 C 96.077 231.888,94.228 237.147,92.757 241.549 C 89.484 251.344,89.968 250.553,87.623 249.935 C 85.201 249.296,74.914 245.858,73.327 245.156 C 72.667 244.865,70.869 244.143,69.331 243.553 C 63.547 241.332,49.985 234.603,48.320 233.127 C 47.973 232.819,47.566 232.567,47.415 232.567 C 47.080 232.567,42.763 229.765,42.029 229.071 C 41.739 228.796,41.362 228.571,41.191 228.571 C 41.021 228.571,40.449 228.215,39.921 227.780 C 39.393 227.344,38.780 226.850,38.560 226.681 C 16.967 210.157,14.096 196.838,28.876 181.749 C 37.156 173.295,50.468 164.980,65.534 158.849 C 66.963 158.268,68.699 157.534,69.391 157.218 C 70.084 156.902,70.902 156.643,71.209 156.643 C 71.517 156.643,71.939 156.480,72.148 156.281 C 72.357 156.082,73.157 155.734,73.926 155.510 C 74.695 155.285,76.583 154.661,78.122 154.123 C 79.660 153.586,82.268 152.743,83.916 152.250 C 85.564 151.758,87.273 151.208,87.712 151.029 C 89.845 150.160,90.015 150.356,91.801 155.744 M319.082 153.621 C 325.737 155.845,331.639 158.097,335.664 159.948 C 336.434 160.302,338.501 161.235,340.260 162.021 C 342.018 162.807,343.726 163.601,344.056 163.784 C 344.386 163.967,346.274 164.978,348.252 166.031 C 350.230 167.083,352.621 168.458,353.566 169.087 C 354.512 169.715,355.373 170.230,355.481 170.230 C 355.829 170.230,363.196 175.480,365.012 177.023 C 383.034 192.333,384.429 203.569,370.116 218.124 C 365.651 222.665,354.370 231.369,352.950 231.369 C 352.818 231.369,352.426 231.618,352.079 231.923 C 351.228 232.670,346.178 235.447,342.258 237.325 C 336.515 240.074,332.854 241.758,332.619 241.758 C 332.492 241.758,331.822 242.017,331.129 242.333 C 329.335 243.151,326.840 244.178,325.674 244.578 C 309.473 250.133,309.690 250.084,309.690 248.200 C 309.690 247.840,309.137 246.019,308.460 244.153 C 307.784 242.286,307.048 240.130,306.825 239.361 C 306.602 238.591,306.256 237.791,306.057 237.582 C 305.857 237.374,305.694 236.928,305.694 236.592 C 305.694 236.257,305.051 234.359,304.264 232.377 C 303.477 230.394,302.595 228.142,302.303 227.373 C 301.567 225.428,298.971 219.051,298.277 217.483 C 297.295 215.264,296.586 213.641,295.962 212.188 C 295.289 210.619,292.927 205.451,291.469 202.359 C 290.195 199.654,290.097 200.175,293.107 193.606 C 293.731 192.244,294.842 189.677,296.910 184.815 C 297.378 183.716,297.992 182.278,298.277 181.618 C 299.186 179.507,302.245 171.633,303.710 167.632 C 304.192 166.314,304.836 164.644,305.141 163.923 C 305.445 163.201,305.694 162.293,305.694 161.905 C 305.694 161.516,305.848 161.028,306.036 160.819 C 306.224 160.610,306.882 158.821,307.499 156.843 C 308.116 154.865,308.854 152.687,309.139 152.002 L 309.656 150.757 311.572 151.255 C 312.626 151.528,316.005 152.593,319.082 153.621 M193.606 165.047 C 189.184 165.907,182.976 168.295,181.516 169.696 C 181.240 169.961,180.656 170.291,180.217 170.430 C 179.779 170.569,179.421 170.851,179.421 171.056 C 179.421 171.261,179.225 171.429,178.985 171.429 C 176.048 171.429,167.615 183.312,165.940 189.810 C 164.722 194.537,164.557 196.157,164.758 201.399 C 164.996 207.611,167.345 215.864,169.422 217.782 C 169.541 217.892,170.145 218.763,170.764 219.719 C 173.439 223.844,177.025 227.154,181.818 229.924 C 185.511 232.059,185.500 232.054,188.285 232.993 C 195.474 235.417,205.279 235.482,210.450 233.138 C 211.143 232.824,211.902 232.567,212.138 232.567 C 212.737 232.567,216.355 230.834,216.517 230.470 C 216.590 230.305,216.878 230.170,217.157 230.170 C 219.281 230.170,230.170 219.177,230.170 217.032 C 230.170 216.785,230.350 216.583,230.569 216.583 C 230.789 216.583,230.970 216.359,230.971 216.084 C 230.973 215.809,231.256 215.045,231.600 214.386 C 235.855 206.233,235.873 194.355,231.645 185.015 C 229.538 180.359,222.566 171.986,220.161 171.223 C 219.732 171.087,219.381 170.829,219.381 170.650 C 219.381 168.536,206.364 164.666,199.401 164.709 C 197.093 164.724,194.486 164.875,193.606 165.047 M281.706 221.500 C 281.717 221.779,282.324 223.249,283.717 226.374 C 283.913 226.813,284.460 228.162,284.932 229.371 C 286.607 233.654,287.063 234.784,287.783 236.442 C 288.184 237.364,288.511 238.362,288.511 238.659 C 288.511 238.957,288.675 239.372,288.874 239.580 C 289.073 239.789,289.422 240.589,289.649 241.359 C 290.147 243.048,291.200 246.055,291.679 247.153 C 292.212 248.376,293.706 253.149,293.706 253.628 C 293.706 253.862,293.302 254.140,292.807 254.246 C 284.282 256.078,276.081 257.592,269.530 258.544 C 266.454 258.991,262.628 259.559,261.030 259.806 C 256.748 260.469,256.700 260.865,261.907 252.547 C 263.764 249.580,265.766 246.262,266.355 245.173 C 266.944 244.084,267.889 242.466,268.454 241.577 C 269.020 240.687,269.966 239.061,270.557 237.962 C 271.148 236.863,272.011 235.335,272.474 234.565 C 272.938 233.796,273.479 232.807,273.677 232.368 C 273.876 231.928,274.822 230.216,275.780 228.564 C 276.738 226.911,277.871 224.843,278.296 223.968 C 280.264 219.924,281.605 218.953,281.706 221.500 M121.571 224.875 C 122.800 227.238,124.269 229.980,124.835 230.969 C 125.401 231.958,125.992 233.036,126.149 233.365 C 126.712 234.544,135.529 249.518,136.288 250.583 C 136.714 251.182,137.063 251.787,137.063 251.927 C 137.063 252.067,137.249 252.399,137.477 252.664 C 138.436 253.783,142.301 260.230,142.121 260.410 C 141.852 260.679,124.135 258.232,118.482 257.144 C 116.943 256.848,113.571 256.203,110.989 255.711 C 108.407 255.218,106.295 254.620,106.298 254.381 C 106.300 254.142,107.391 250.799,108.722 246.953 C 110.053 243.107,111.316 239.385,111.528 238.682 C 111.741 237.978,112.177 236.900,112.498 236.284 C 112.819 235.668,113.083 234.886,113.084 234.545 C 113.086 234.205,113.238 233.755,113.422 233.546 C 113.606 233.338,114.167 231.998,114.668 230.569 C 115.515 228.154,116.301 226.230,117.711 223.116 C 118.025 222.424,118.282 221.570,118.282 221.218 C 118.282 219.566,119.533 220.957,121.571 224.875 M299.661 275.036 C 302.181 287.226,302.343 288.214,303.304 297.303 C 304.876 312.149,303.549 334.955,300.898 338.661 C 300.741 338.881,300.501 339.649,300.364 340.368 C 299.293 346.019,293.325 354.407,288.882 356.505 C 282.257 359.634,270.241 358.603,260.340 354.057 C 259.900 353.855,258.641 353.310,257.542 352.845 C 254.317 351.480,248.730 348.555,245.862 346.730 C 244.932 346.138,244.083 345.654,243.975 345.654 C 243.519 345.654,230.326 336.389,229.770 335.678 C 229.660 335.537,228.851 334.892,227.972 334.245 C 227.093 333.597,226.155 332.887,225.888 332.667 C 225.621 332.448,225.171 332.082,224.889 331.855 C 221.015 328.741,212.587 320.870,212.587 320.366 C 212.587 319.908,213.782 318.374,215.921 316.084 C 216.845 315.095,218.403 313.297,219.384 312.088 C 220.365 310.879,221.261 309.800,221.374 309.690 C 223.442 307.685,234.849 292.937,240.536 284.915 C 245.581 277.797,244.963 278.259,249.869 277.941 C 253.845 277.683,255.963 277.429,268.332 275.726 C 278.070 274.386,288.644 272.482,295.904 270.761 C 298.683 270.102,298.627 270.039,299.661 275.036 M106.294 271.917 C 108.162 272.290,110.500 272.774,111.489 272.994 C 114.810 273.732,125.638 275.390,133.267 276.328 C 135.904 276.652,139.411 277.097,141.059 277.316 C 142.707 277.535,146.245 277.896,148.920 278.118 C 154.908 278.616,154.608 278.495,156.490 281.186 C 157.343 282.408,158.357 283.747,158.741 284.161 C 159.126 284.576,159.441 285.005,159.441 285.115 C 159.441 285.225,159.719 285.629,160.059 286.014 C 160.399 286.399,162.219 288.781,164.104 291.309 C 165.989 293.836,167.734 296.084,167.982 296.304 C 168.229 296.523,169.241 297.782,170.230 299.101 C 171.219 300.420,172.208 301.698,172.428 301.942 C 173.395 303.016,174.957 304.864,176.616 306.897 C 179.285 310.168,182.590 313.911,186.510 318.104 L 188.604 320.344 185.910 322.927 C 179.929 328.662,169.815 336.796,163.423 341.011 C 161.562 342.237,159.823 343.425,159.557 343.649 C 159.292 343.873,158.986 344.056,158.878 344.056 C 158.770 344.056,157.908 344.570,156.963 345.199 C 156.018 345.827,153.626 347.203,151.648 348.255 C 149.670 349.307,147.782 350.318,147.453 350.502 C 145.825 351.407,140.631 353.646,140.158 353.646 C 139.862 353.646,139.450 353.804,139.241 353.996 C 136.508 356.513,120.611 359.050,114.951 357.873 C 110.044 356.852,103.497 352.459,103.497 350.188 C 103.497 349.892,103.350 349.650,103.171 349.650 C 102.808 349.650,100.155 344.419,99.725 342.857 C 99.574 342.308,99.291 341.499,99.095 341.059 C 94.677 331.109,94.588 303.533,98.910 283.317 C 99.215 281.888,99.587 280.000,99.735 279.121 C 100.573 274.163,101.665 270.890,102.410 271.102 C 102.678 271.179,104.426 271.545,106.294 271.917 M222.977 280.439 C 222.977 280.664,212.582 294.219,212.036 294.705 C 211.790 294.925,210.875 296.004,210.002 297.103 C 208.263 299.293,203.582 304.705,201.562 306.860 L 200.282 308.226 198.106 305.861 C 196.910 304.561,195.064 302.507,194.004 301.299 C 192.944 300.090,191.927 299.041,191.743 298.968 C 191.559 298.894,191.409 298.595,191.409 298.302 C 191.409 298.009,191.254 297.709,191.065 297.636 C 190.684 297.488,187.416 293.675,184.257 289.693 C 183.131 288.274,181.888 286.753,181.494 286.314 C 180.576 285.289,177.023 280.624,177.023 280.443 C 177.023 280.367,187.363 280.300,200.000 280.293 C 212.637 280.285,222.977 280.351,222.977 280.439 " stroke="none" fill="#000000" fill-rule="evenodd"></path></g></svg>